<svg xmlns="http://www.w3.org/2000/svg" width="123" height="122" viewBox="0 0 123 122">
    <defs>
        <linearGradient id="yrn0a" x1="130.14" x2="30.15" y1="83.35" y2="51.18" gradientUnits="userSpaceOnUse">
            <stop offset="0" stop-color="#0066ff"/>
            <stop offset=".21" stop-color="#0066ff"/>
            <stop offset=".46" stop-color="#0066ff"/>
            <stop offset=".68" stop-color="#0066ff"/>
            <stop offset=".87" stop-color="#0066ff"/>
            <stop offset="1" stop-color="#0066ff"/>
        </linearGradient>
        <linearGradient id="yrn0b" x1="55.17" x2="79.17" y1="60.49" y2="60.49" gradientUnits="userSpaceOnUse">
            <stop offset="0" stop-color="#0066ff"/>
            <stop offset="1" stop-color="#0066ff"/>
        </linearGradient>
        <linearGradient id="yrn0c" x1="92.57" x2="116.61" y1="42.83" y2="42.54" gradientUnits="userSpaceOnUse">
            <stop offset="0" stop-color="#0066ff"/>
            <stop offset="1" stop-color="#0066ff"/>
        </linearGradient>
    </defs>
    <g>
        <g>
            <path fill="url(#yrn0a)" d="M122.085 61.11a61.059 61.059 0 0 1-10.975 34.878l-.769 1.063-.658.879-.622.806a81.462 81.462 0 0 1-4.024 4.653c-.22.183-.403.403-.622.623l-.257.22a17.68 17.68 0 0 1-1.17 1.172l-.512.476-.659.586-1.573 1.392-.842.696-1.17.916-.988.733-1.866 1.319-.512.366-.842.513-.878.55-1.463.88-.585.329-.696.403-2.085 1.099-1.06.513-1.062.513-1.06.44-2.233.915-.768.293-1.463.513h-.256a59.97 59.97 0 0 1-6.915 1.905A63.464 63.464 0 0 1 61.024 122c-31.457.011-57.77-23.926-60.768-55.284C0 64.774 0 62.979 0 61.11-.044 29.582 23.898 3.21 55.244.257A51.034 51.034 0 0 1 60.549 0h2.378c2.203.067 4.401.25 6.585.55h1.244c1.72.257 3.44.623 5.085 1.026A60.895 60.895 0 0 1 105.11 18.43L55.207 42.792a21.148 21.148 0 0 0-6.22 4.543 21.522 21.522 0 0 0-5.853 14.655c0 3.238.738 6.433 2.159 9.342v.22c4.575 9.057 14.876 13.648 24.658 10.99a24.82 24.82 0 0 0 3.659-1.428l21.622-10.515 26.524-12.896c.293 1.246.33 2.308.33 3.407z"/>
        </g>
        <g>
            <path fill="#0066ff" d="M110.415 97.049l-.659.879"/>
        </g>
        <g>
            <path fill="url(#yrn0b)" d="M71.814 71.474c-1.473.614-3.05.938-4.646.953A12.073 12.073 0 0 1 56.192 65.1a11.922 11.922 0 0 1-.021-9.145 11.899 11.899 0 0 1 6.46-6.462 12.388 12.388 0 0 1 4.647-.953 12.073 12.073 0 0 1 10.975 7.327 11.922 11.922 0 0 1 .022 9.145 11.898 11.898 0 0 1-6.46 6.462z"/>
        </g>
        <g>
            <path fill="url(#yrn0c)" d="M109.392 53.31a12.168 12.168 0 0 1-5.634.917 11.89 11.89 0 0 1-10.17-6.924 11.409 11.409 0 0 1-.11-8.938 11.386 11.386 0 0 1 6.365-6.267 12.277 12.277 0 0 1 6.256-.879 11.891 11.891 0 0 1 9.695 6.888 11.409 11.409 0 0 1 .052 8.976 11.385 11.385 0 0 1-6.454 6.228z"/>
        </g>
        <g opacity=".25">
            <path fill="#0066ff" d="M109.394 53.302a12.168 12.168 0 0 1-5.634.916l2.195-23.008a11.891 11.891 0 0 1 9.695 6.888c1.25 2.84 1.29 6.068.11 8.937a11.386 11.386 0 0 1-6.366 6.267z"/>
        </g>
        <g opacity=".25">
            <path fill="#0066ff" d="M71.816 71.481c-1.473.614-3.05.937-4.646.953V48.51a12.073 12.073 0 0 1 10.976 7.327 11.922 11.922 0 0 1 .081 9.14 11.899 11.899 0 0 1-6.41 6.504z"/>
        </g>
    </g>
</svg>